<svg xmlns:xlink="http://www.w3.org/1999/xlink" xmlns="http://www.w3.org/2000/svg" width="72" height="72" viewBox="0 0 72 72" fill="none">
<rect width="72" height="72" fill="#F2F1FF"/>
<path fill-rule="evenodd" clip-rule="evenodd" d="M33.7936 20.3277L29.6066 28.2222C29.559 28.314 29.4893 28.3922 29.406 28.4534C29.3227 28.5146 29.2258 28.5554 29.1238 28.5724L20.3215 30.116C19.4103 30.2758 18.6623 30.9251 18.3767 31.804C18.0911 32.6829 18.3138 33.6485 18.9581 34.3131L25.1731 40.7355C25.2445 40.8103 25.2989 40.9004 25.3312 40.9973C25.3635 41.0959 25.372 41.1996 25.3584 41.3033L24.1056 50.1516C23.9764 51.0661 24.3623 51.979 25.1102 52.523C25.8582 53.067 26.8442 53.152 27.6755 52.7457L35.7026 48.8188C35.7961 48.7729 35.8981 48.7508 36.0018 48.7508V19C35.0753 19 34.2271 19.5117 33.7936 20.3277Z" fill="#4A3AFF"/>
<path opacity="0.35" fill-rule="evenodd" clip-rule="evenodd" d="M46.827 40.7338L53.042 34.3114C53.6846 33.6468 53.909 32.6812 53.6234 31.8023C53.3378 30.9234 52.5898 30.2741 51.6786 30.1143L42.8763 28.5724C42.7743 28.5537 42.6774 28.5129 42.5941 28.4534C42.5108 28.3922 42.4411 28.314 42.3935 28.2222L38.2065 20.326C37.773 19.5117 36.9248 19 36 19V48.7491C36.1037 48.7491 36.2057 48.7729 36.2992 48.8171L44.3263 52.744C45.1576 53.1503 46.1436 53.0636 46.8916 52.5213C47.6395 51.9773 48.0254 51.0661 47.8962 50.1499L46.6434 41.3016C46.6281 41.1996 46.6383 41.0942 46.6706 40.9956C46.7012 40.8987 46.7556 40.8086 46.827 40.7338Z" fill="#4A3AFF"/>
</svg>